<svg version="1.1" id="pic1" xmlns="http://www.w3.org/2000/svg" x="0" y="0" viewBox="0 0 4096 4096" xml:space="preserve"><style>.st1{fill:#fff}</style><path d="M1448.7,3227.5c-3.5-1.6-7.4-2.4-11.2-3.2c-22.5-4.8-45.1-9.5-67.7-14.3c-6.8-1.5-7.2-2.2-5.9-9.3 c0.3-1.5,0.6-2.9,1-4.4c3.5-13.4,7-26.7,10.4-40.1c0.5-2,0.5-4.1,0.6-6.2c0.2-4.4-0.1-9,0.7-13.3c0.8-4.4-0.8-7.3-4.3-8.8 c-3.8-1.7-8-2.5-12-3.6c-5.4-1.5-10.9-3-16.3-4.5c-2.6-0.7-5.2-1.5-7.8-2.2c-13.1-3.9-26.3-7.7-39.3-11.8 c-8.8-2.7-17.5-5.9-26.3-8.7c-5.6-1.7-6.2-1-8.4,4.5c-1.5,3.8-3.8,7.3-5.8,10.9c-0.7,1.3-1.8,2.5-2.2,3.8 c-5,14.8-9.9,29.6-14.8,44.4c-2.6,7.9-6,9.4-13.5,6.3c-9.1-3.8-18.2-7.6-27.5-10.9c-12.9-4.6-14.2-7.1-8.8-19.7 c0.2-0.6,0.6-1.1,0.8-1.6c3.8-9.5,8-18.8,11.3-28.4c3.2-9.3,5.4-18.9,8.4-29.3c-2.5-1.9-5.1-4.6-8.2-6.1 c-10.8-5-21.9-9.3-32.7-14.2c-3.2-1.4-5.9-1.7-8,1.1c-4.5,6.2-9.6,12.3-12.9,19.1c-6.2,12.6-11.2,25.8-16.8,38.7 c-3.2,7.4-7.9,8.9-15.2,5.2c-4.8-2.5-9.7-4.8-14.5-7.2c-5.9-3-11.9-5.7-17.5-9.1c-6-3.6-6.5-5.9-3.2-11.8 c11.1-19.8,21-40.2,28.5-62.9c-3.5-2.2-7.4-4.8-11.5-7.1c-6-3.3-12.3-6.1-18.3-9.5c-14.2-8.1-28.5-16.2-42.5-24.6 c-13.6-8.2-26.9-16.8-40.2-25.3c-7.1-4.5-13.9-9.4-20.9-14c-5.4-3.5-7.3-2.9-10.9,2.5c-1.5,2.2-3.3,4.1-5.1,6.1 c-2.8,3.1-6.2,5.7-8.5,9.1c-7.9,11.3-15.4,22.9-23.2,34.3c-1.6,2.3-4.2,3.8-7,6.3c-22-16.9-43.5-33.2-64.8-49.7 c-10-7.7-19-16.9-29.7-23.4c-9.3-5.7-17.7-12.2-25.5-19.6c-25-23.7-50.1-47.3-74.2-71.8c-32.2-32.8-62-67.7-90.2-104 c-24.2-31-47-62.9-68.6-95.8c-7.6-11.5-15-23.1-22-35c-8.1-13.6-15.8-27.5-23.5-41.4c-8-14.3-16-28.7-23.6-43.2 c-6.8-13-13.1-26.2-19.5-39.4c-2.7-5.6-5.3-11.4-7.8-17.1c-4-8.9-8.1-17.9-12.1-26.9c-0.6-1.4-1.6-2.9-1.5-4.2 c1.2-9.7-5.3-17-8-25.4c-4.9-15.1-11.9-29.5-17.1-44.5c-6.8-19.2-12.9-38.7-19.1-58.2c-3-9.4-5.8-18.9-8.4-28.5 c-3.4-12.8-6.5-25.6-9.7-38.4c-3.4-13.7-6.9-27.4-10.2-41.1c-0.9-3.8-1.3-7.7-1.9-11.6c-0.7-3.9,0.8-6.8,4.5-7.6 c10.8-2.3,21.3-6.1,33.7-5.9c1,4.4,2.1,8.6,3,12.9c0.8,3.8,1.2,7.7,2.1,11.5c3.3,13.4,6.7,26.8,10.1,40.2 c2.5,9.9,5.1,19.8,7.7,29.6c3,11,5.7,22.1,9.2,32.9c5.4,16.9,11.1,33.6,17.1,50.3c7.2,20,15,39.8,22.3,59.8 c1.6,4.3,4.4,5.5,8.3,4.8c2.3-0.4,4.6-1.2,6.8-2c4.2-1.6,8.3-3.2,12.4-4.9c2.2-0.9,4.4-1.9,6.3-3.3c5.4-3.7,6.1-6.1,3.6-12.2 c-1.4-3.3-3.6-6.3-4.8-9.6c-5.3-14.9-10.4-29.8-15.6-44.8c-0.5-1.4-1.2-2.8-1.7-4.2c-3.3-8.9-7-17.7-9.8-26.8 c-3.5-11.1-6.2-22.5-9.2-33.7c-0.2-0.9-0.8-1.6-1.1-2.5c-1.4-4.9-2.8-9.7-4.2-14.6c-0.7-2.6-1.2-5.3-2-7.9 c-3.5-12.1-7.5-24-10.4-36.2c-3.5-15.2-6-30.6-9.1-45.9c-3.4-17.1-7.9-34-10.3-51.2c-2.3-16.7-4.7-33.3-7-50 c-3.2-22.3-5.1-44.9-6-67.5c-1.4-36.7-1.5-73.5-1.9-110.2c-0.1-15.1-0.3-30.2,1.1-45.2c3.4-37.1,5.3-74.4,11.8-111.3 c1.9-11-0.5-13.6-11.7-15.6c-6.5-1.1-13-2.3-19.4-3.5c-3.4-0.6-5.5-2.4-4.8-6.2c2.2-11.5,4.1-23.1,6.5-34.5 c3.3-15.9,6.9-31.7,10.5-47.5c2.9-12.6,6-25.1,9.1-37.6c2.1-8.4,4.3-16.9,6.9-25.2c3.4-11.2,7.1-22.3,10.7-33.5 c5.2-16.3,10.4-32.5,15.8-48.8c2.4-7.1,5.1-14.1,7.8-21.1c3.7-9.5,7.5-18.9,11.3-28.4c4.9-12.2,9.7-24.5,15-36.6 c5.6-12.9,11.6-25.6,17.7-38.3c7.4-15.4,14.6-30.9,22.6-46c9.9-18.5,20.3-36.7,30.9-54.8c12.7-21.4,25.5-42.8,39-63.7 c12-18.7,24.8-36.9,37.6-55c6.7-9.5,14.2-18.5,22-28.5c3.8,2.4,7.4,4.5,10.7,6.9c4.4,3.2,8.4,6.8,12.8,9.9 c6.6,4.8,7.2,4.6,12.4-1.6c10.2-12.2,20-24.7,30.7-36.5c15.9-17.7,32-35.1,48.6-52.1c17.9-18.4,36-36.6,54.8-54.2 c23.4-21.9,47.8-42.7,73.7-61.7c3.3-2.4,6-5.5,9.6-8.9c-6.8-8.7-13-16.8-19.3-24.8c-5.2-6.7-7.3-7-13.8-1.8 c-11.7,9.4-23.3,18.9-34.9,28.5c-46.2,38.2-88.6,80.3-129,124.5c-2.5,2.7-5.8,4.7-9,7.2c-7.7-8.4-17.1-13.7-22.8-23.2 c12-12.6,23.5-24.9,35.3-36.9c33.9-34.7,69.6-67.3,107.4-97.6c24.3-19.5,49.2-38.5,74.6-56.6c21.2-15.2,43.3-29.1,65.3-43.1 c16.9-10.7,34.2-21,51.7-30.8c17.4-9.9,35.2-19.1,53-28.4c8.2-4.3,12.2-2.6,15.8,5.3c7.8,16.8,15.8,33.6,23.9,50.3 c1.4,2.8,3.6,5.2,5.6,8c11.1-5,21.4-9.7,31.7-14.4c7.6-3.4,15.1-6.9,22.8-10.1c7.7-3.2,15.5-6,23.3-9c6.1-2.4,12.1-4.9,18.2-7.4 c8.5-3.4,16.9-7.2,25.6-10.2c9.8-3.4,19.9-6.2,29.8-9.2c0.9-0.3,1.7-0.7,2.5-1c4.2-1.5,8.4-2.9,12.6-4.3c2.6-0.8,5.2-1.4,7.8-2.2 c5.4-1.6,10.8-3.4,16.2-5c2-0.6,4.1-1,6.1-1.6c11.7-3.5,23.3-7.6,35.1-10.5c13.6-3.3,27.5-5.6,41.2-8.3c6.4-1.3,10.5-6.8,9.2-13.1 c-3.9-18.5-7.9-37-12.1-55.5c-2.2-9.6-1.8-11.1,7.5-13.3c12.9-2.9,25.9-5.1,38.8-7.8c8.4-1.7,16.9-3.7,25.3-5.5 c16.4-3.5,32.9-6.3,49.8-6.7c5.6-0.1,11.2-1.7,16.9-2.6c5.3-0.8,10.7-1.8,16-2.1c26.4-1.4,52.8-2.6,79.1-3.8 c12.3-0.6,24.6-1.8,36.9-1.4c38.4,1.2,76.8,2.5,115.1,4.8c22.4,1.3,44.7,4.6,67.1,7.1c3.9,0.4,7.7,1.3,11.5,2.2 c17.8,3.9,36.4,3.7,53.9,9.4c0.8,0.3,1.8,0.1,2.7,0.2c16.1,3.1,32.3,6,48.4,9.3c7.6,1.5,15.1,3.5,22.6,5.4c3.2,0.8,6.3,2,9.4,3 c3.1,1,6.2,2.1,9.4,3c6.6,1.8,13.3,3.4,19.8,5.3c9.2,2.6,18.3,5.4,27.5,8c10.9,3.1,21.9,6,32.7,9.3c8.5,2.6,16.7,5.7,25.9,8.9 c3.2-9.7,6.3-18.8,9.3-27.8c0.9-2.8,1.7-5.7,2.6-8.6c3.5-10.5,7.3-20.9,10.3-31.5c2.1-7.4-0.3-11.1-7.7-13.6 c-7.6-2.5-15.3-5.1-23-7.3c-11.2-3.2-22.5-6.1-33.7-9.1c-1.2-0.3-2.2-0.9-3.4-1.2c-11.7-3.6-23.2-7.6-35-10.7 c-12.7-3.3-25.7-5.5-38.4-8.7c-20-5.1-40-9.7-60.4-12.9c-23.1-3.6-46-8.2-69-11.9c-10.3-1.7-20.9-2.3-31.3-3.4 c-10.4-1.2-20.8-2.7-31.3-3.5c-12.9-1-25.8-1.4-38.7-2.2c-23.7-1.4-47.3-3.6-71-4.2c-39-1.1-77.9,1.2-116.9,3.9 c-34.1,2.3-68,6.5-102,9.9c-12.8,1.3-25.4,5.1-38.2,5.6c-9.4,0.4-18.3,1.9-27.4,3.9c-13.2,2.8-26.4,5.4-39.6,8.3 c-14.9,3.2-29.9,6.2-44.6,10.1c-19.1,5-38,10.6-57,16.2c-17.5,5.2-35,10.3-52.3,16.1c-18.4,6.3-36.5,13.5-54.7,20.2 c-7.9,2.9-10.2,2-13.1-5.4c-4.7-11.7-9.8-23.2-14-35.1c-6.2-17.4-12.9-34.5-21.7-50.8c-1.5-2.8-3.3-4.2-6.4-2.8 c-5.7,2.5-11.4,5.1-17.1,7.6c-14.7,6.5-29.5,12.9-44.1,19.4c-6.3,2.8-12.5,5.7-18.6,8.8c-11.2,5.6-22.3,11.4-33.5,17 c-11.1,5.6-22.5,10.9-33.4,16.9c-18.8,10.3-37.5,20.9-56,31.7c-7.7,4.5-15.1,9.6-23.1,14.7c3.4,6.7,6,12.9,9.5,18.7 c13,21.6,26.3,43,39.6,64.5c3.8,6.1,2.9,10.5-3.3,14.3c-2.5,1.6-5.2,3-7.7,4.6c-10.5,6.9-21,13.9-31.6,20.8 c-5.2,3.4-6.9,3.1-9.7-1.1c-11.4-17-22.5-34.1-34.1-50.9c-7.3-10.7-15.3-20.9-22.6-30.7c-1.8,0.2-2.2,0.2-2.4,0.3 c-12.8,8.8-25.7,17.5-38.3,26.5c-1.3,0.9-2,4.6-1.2,6.2c2.2,4.9,4.9,9.6,8,13.9c15.6,21.4,31.4,42.6,47.2,63.8 c3.6,4.9,3.5,6.6-1.3,10.5c-6.1,4.9-12.3,9.6-18.5,14.4c-7.8,6.1-10,5.9-16-1.7c-16.4-20.8-32.7-41.6-49.2-62.3 c-3.2-4.1-7.5-7.3-11.8-11.4c-11.6,9.4-24.3,17.7-34.8,29.4c19.4,29.5,44.3,53.7,65.5,81.8c-8.8,10.2-19.2,18.1-29.4,27.3 c-3.4-3.2-6.5-5.6-9-8.4c-13-14.6-25.7-29.5-38.9-43.9c-8-8.8-16.6-17-25.7-26.3c-7.3,8.9-16.8,13.9-22.1,23 c6.8,8,12.8,15.4,19.2,22.5c14.1,15.6,28.5,31,42.7,46.5c1.4,1.5,2.9,3,4.2,4.7c2.4,3.4,2.4,6.7-0.7,9.7 c-6.8,6.4-13.6,12.7-20.3,19.2c-3.2,3.1-6.3,3.1-9.6,0.5c-1.9-1.5-3.6-3.1-5.3-4.9c-17.5-17.8-34.9-35.7-52.4-53.5 c-2.5-2.5-5.4-4.8-8.5-6.5c-6.2-3.4-7.6-3.1-12.5,2c-9.1,9.5-18.1,19.2-27.3,28.7c-26.2,27.3-50.6,56.1-74.4,85.5 c-12.5,15.4-24.4,31.2-36.3,47.1c-6.8,9-13.2,18.4-20,28.1c6.3,5.2,11.7,10.2,17.6,14.5c19.4,14.1,39,28,58.6,41.8 c8,5.6,8.1,5.4,3.3,13.8c-0.6,1-1.2,2.1-1.9,3.1c-9.9,14.7-20.3,29.1-29.7,44c-13,20.5-25.6,41.4-37.9,62.3 c-7.8,13.2-15,26.7-22.1,40.2c-8.4,15.9-16.6,31.9-24.4,48.1c-7.8,16.2-15,32.7-22.2,49.1c-8.2,19-16.4,38-24.1,57.2 c-4.1,10.1-4.6,10.8-14.8,7.5c-2.3-0.7-4.4-1.8-6.7-2.7c-8.4-3.2-16.7-6.5-25.1-9.6c-10.6-3.9-21.4-7.7-32-11.7 c-7-2.6-13.9-5-22.1-5.1c-2.3,5.6-4.9,11-6.8,16.6c-3.4,9.6-6.5,19.3-9.6,28.9c-3.6,11.1-7,22.1-10.6,33.2c-1.2,3.7-2.3,7.4-3.8,11 c-2.1,5-1.7,6.1,2.6,9.9c4.6,4,10.2,4.5,15.6,6.1c23,6.5,45.9,13.3,68.9,20c7.1,2.1,8,3.8,6,11.1c-5.1,18.8-10.2,37.7-15.3,56.5 c-0.5,1.7-1,3.5-1.5,5.2c-1.1,3.6-3.3,4.6-6.9,3.7c-10.5-2.6-20.9-5.1-31.5-7.4c-17.5-3.8-35.2-7.2-52.7-11.3 c-5.6-1.3-8.2,1.1-9.5,5.5c-2.3,7.8-4.1,15.7-5.9,23.6c-1.1,4.7-1.5,9.5-2.4,14.2c-1.6,8.3-3.5,16.5-4.9,24.7 c-1.2,7,2.6,12.9,9.3,14c18.3,3.2,36.7,5.9,55,9.1c8.8,1.5,17.6,3.4,26.4,5.3c3.9,0.9,6,2.8,5.3,7.7c-3.5,23.8-6.7,47.7-9.9,71.5 c-0.2,1.5-0.6,3-0.8,4.5c-0.5,3.6-2.7,5.2-6.1,5.4c-2.1,0.1-4.2,0.2-6.3,0c-16.4-1.7-32.8-3.6-49.2-5.2c-9.3-0.9-18.5-1.8-27.8-2.4 c-7.1-0.4-11.9,2.6-12.4,7.5c-1.1,10.2-2.4,20.3-2.9,30.5c-1.3,29.2-2.6,58.3-3.3,87.5c-0.5,23.1-1.6,46.4,0.1,69.4 c2.9,40.8,1.2,81.9,8.1,122.5c3,17.7,2,36.1,7,53.6c0.6,2.3,0.4,4.8,0.7,7.2c3,19.9,5.9,39.8,9,59.7c0.3,2.1,1.1,4.1,1.6,6.1 c2.3,8.2,5.4,10,13.6,8c7.3-1.8,14.6-3.4,21.9-4.9c17.6-3.6,35.2-7.1,52.8-10.8c5.5-1.2,7.3-0.6,8.5,4.8c4.4,19,8.5,38.1,13,57.2 c3.4,14.6,7.1,29.2,10.9,43.7c3,11.6,6.4,23.2,9.7,34.7c2.7,9.5,5.4,19.1,8.6,28.4c5.7,16.8,11.7,33.4,17.6,50.1 c2.6,7.3,4.9,14.8,7.9,22c4.9,11.9,10.2,23.6,15.4,35.3c3.9,8.7,8.2,17.3,12.1,26c3.3,7.4,6.1,14.9,9.5,22.2 c5.6,11.9,11.5,23.6,17.4,35.4c7.6,15.3,15,30.6,23.1,45.6c7.6,14.2,16,28.1,24.1,42.1c8,13.7,15.8,27.5,24.3,40.9 c11.8,18.4,24.4,36.4,36.5,54.6c24.2,36.2,51,70.5,79.3,103.5c22.2,25.9,45.6,50.9,69,75.8c13.9,14.8,28.4,29,43.2,42.9 c15.7,14.7,32,28.7,48,43.1c0.9,0.8,2,1.6,2.5,2.6c3,7.1,9.4,10.7,15,15.2c3,2.4,5.9,4.8,9.6,7.8c-2.5,3.9-4.4,7.6-6.9,10.8 c-7.8,9.9-15.8,19.7-23.7,29.6c-3.9,4.9-7.4,10.2-11.7,14.8c-5.7,6.1-6.2,8.6,0.1,13.8c7.8,6.6,15.6,13.1,23.8,19.1 c17.2,12.5,34.5,24.8,52,37c17.7,12.3,35.5,24.4,53.4,36.5c5.8,3.9,9.4,2.8,13.2-3.4c10.7-17.4,21.3-34.8,32-52.2 c3.8-6.2,5.9-6.7,12.3-2.9c8.7,5.3,17.2,10.9,26.1,16c16.9,9.7,33.7,19.3,50.9,28.5c20,10.7,40.1,21.5,60.6,31.2 c22.4,10.6,45.2,20.4,68.1,29.8c22.4,9.2,45.2,17.4,67.8,26c7.8,3,15.8,5.7,23.7,8.3c11.3,3.8,22.7,7.5,34.1,11.1 c11.2,3.4,22.4,6.7,33.6,9.8c12.1,3.4,24.1,7,36.4,9.9c14.3,3.4,28.7,6.2,43,9.4c15.5,3.5,30.9,7.2,46.4,10.7 c5.7,1.3,8.5-0.3,10.5-5.7c0.8-2.3,1.4-4.6,1.9-7c4.2-20.6,8.4-41.2,12.5-61.8C1454.7,3232.5,1453.6,3229.7,1448.7,3227.5z" fill="none"/><path class="st1" d="M671.5,781.6c9.1,9.2,17.7,17.5,25.7,26.3c13.2,14.5,25.9,29.3,38.9,43.9c2.5,2.8,5.6,5.2,9,8.4 c10.2-9.2,20.6-17.1,29.4-27.3c-21.2-28.1-46.1-52.3-65.5-81.8c10.5-11.7,23.2-19.9,34.8-29.4c4.3,4.1,8.6,7.4,11.8,11.4 c16.5,20.6,32.9,41.5,49.2,62.3c6,7.6,8.2,7.9,16,1.7c6.1-4.8,12.4-9.5,18.5-14.4c4.8-3.9,4.9-5.7,1.3-10.5 c-15.7-21.3-31.5-42.5-47.2-63.8c-3.2-4.3-5.8-9.1-8-13.9c-0.7-1.6-0.1-5.3,1.2-6.2c12.6-9.1,25.5-17.7,38.3-26.5 c0.2-0.2,0.6-0.1,2.4-0.3c7.2,9.8,15.2,20.1,22.6,30.7c11.6,16.8,22.7,33.9,34.1,50.9c2.8,4.2,4.6,4.5,9.7,1.1 c10.6-6.9,21-13.9,31.6-20.8c2.5-1.6,5.1-3.1,7.7-4.6c6.2-3.8,7-8.2,3.3-14.3C923,683,909.7,661.6,896.7,640 c-3.5-5.8-6.1-12-9.5-18.7c8-5.1,15.4-10.2,23.1-14.7c18.6-10.7,37.2-21.4,56-31.7c10.9-6,22.3-11.2,33.4-16.9 c11.2-5.7,22.3-11.4,33.5-17c6.1-3.1,12.3-6,18.6-8.8c14.7-6.5,29.4-12.9,44.1-19.4c5.7-2.5,11.4-5.1,17.1-7.6 c3.2-1.4,4.9,0,6.4,2.8c8.8,16.3,15.5,33.4,21.7,50.8c4.2,11.9,9.3,23.4,14,35.1c3,7.4,5.3,8.3,13.1,5.4 c18.2-6.8,36.3-14,54.7-20.2c17.2-5.9,34.8-11,52.3-16.1c18.9-5.6,37.9-11.2,57-16.2c14.8-3.9,29.7-6.9,44.6-10.1 c13.2-2.9,26.4-5.4,39.6-8.3c9-2,18-3.5,27.4-3.9c12.8-0.5,25.4-4.3,38.2-5.6c34-3.4,67.9-7.6,102-9.9c39-2.7,77.9-5,116.9-3.9 c23.7,0.7,47.3,2.8,71,4.2c12.9,0.8,25.8,1.2,38.7,2.2c10.4,0.8,20.8,2.4,31.3,3.5c10.4,1.2,20.9,1.8,31.3,3.4 c23,3.7,46,8.3,69,11.9c20.4,3.2,40.4,7.8,60.4,12.9c12.7,3.2,25.7,5.4,38.4,8.7c11.8,3.1,23.4,7.1,35,10.7 c1.1,0.4,2.2,0.9,3.4,1.2c11.2,3,22.5,5.9,33.7,9.1c7.7,2.2,15.4,4.7,23,7.3c7.4,2.5,9.8,6.1,7.7,13.6c-3.1,10.6-6.9,21-10.3,31.5 c-0.9,2.8-1.7,5.7-2.6,8.6c-3,9.1-6,18.1-9.3,27.8c-9.2-3.2-17.5-6.3-25.9-8.9c-10.8-3.3-21.8-6.2-32.7-9.3 c-9.2-2.6-18.3-5.4-27.5-8c-6.6-1.9-13.2-3.5-19.8-5.3c-3.2-0.9-6.3-1.9-9.4-3c-3.1-1-6.2-2.2-9.4-3c-7.5-1.9-15-3.9-22.6-5.4 c-16.1-3.2-32.3-6.2-48.4-9.3c-0.9-0.2-1.8,0-2.7-0.2c-17.5-5.6-36.1-5.5-53.9-9.4c-3.8-0.8-7.6-1.7-11.5-2.2 c-22.3-2.5-44.7-5.7-67.1-7.1c-38.3-2.3-76.8-3.6-115.1-4.8c-12.3-0.4-24.6,0.8-36.9,1.4c-26.4,1.2-52.8,2.4-79.1,3.8 c-5.4,0.3-10.7,1.3-16,2.1c-5.6,0.8-11.2,2.5-16.9,2.6c-16.9,0.3-33.4,3.1-49.8,6.7c-8.4,1.8-16.8,3.8-25.3,5.5 c-12.9,2.6-25.9,4.9-38.8,7.8c-9.3,2.1-9.7,3.7-7.5,13.3c4.2,18.5,8.2,37,12.1,55.5c1.3,6.3-2.8,11.8-9.2,13.1 c-13.7,2.7-27.6,5-41.2,8.3c-11.8,2.9-23.4,7-35.1,10.5c-2,0.6-4.1,1-6.1,1.6c-5.4,1.6-10.8,3.4-16.2,5c-2.6,0.8-5.2,1.3-7.8,2.2 c-4.2,1.4-8.4,2.9-12.6,4.3c-0.8,0.3-1.6,0.7-2.5,1c-9.9,3.1-20,5.8-29.8,9.2c-8.7,3-17.1,6.8-25.6,10.2c-6.1,2.4-12.1,5-18.2,7.4 c-7.8,3.1-15.6,5.8-23.3,9c-7.7,3.2-15.2,6.7-22.8,10.1c-10.3,4.6-20.6,9.3-31.7,14.4c-2-2.8-4.2-5.2-5.6-8 c-8.1-16.7-16.1-33.5-23.9-50.3c-3.6-7.8-7.6-9.6-15.8-5.3c-17.7,9.3-35.5,18.6-53,28.4c-17.5,9.9-34.7,20.1-51.7,30.8 c-22,14-44.1,27.9-65.3,43.1c-25.4,18.2-50.3,37.1-74.6,56.6c-37.8,30.3-73.5,62.9-107.4,97.6c-11.8,12-23.2,24.3-35.3,36.9 c5.7,9.5,15.1,14.8,22.8,23.2c3.2-2.5,6.5-4.4,9-7.2c40.4-44.2,82.8-86.4,129-124.5c11.6-9.6,23.2-19.1,34.9-28.5 c6.5-5.3,8.7-4.9,13.8,1.8c6.2,8.1,12.5,16.1,19.3,24.8c-3.6,3.3-6.3,6.5-9.6,8.9c-25.9,19-50.3,39.8-73.7,61.7 c-18.7,17.5-36.9,35.8-54.8,54.2c-16.6,17-32.7,34.4-48.6,52.1c-10.6,11.8-20.4,24.4-30.7,36.5c-5.2,6.2-5.8,6.3-12.4,1.6 c-4.4-3.2-8.4-6.8-12.8-9.9c-3.3-2.4-6.9-4.4-10.7-6.9c-7.8,10-15.3,19-22,28.5c-12.8,18.2-25.6,36.4-37.6,55 c-13.5,20.9-26.3,42.3-39,63.7c-10.7,18.1-21.1,36.3-30.9,54.8c-8,15.1-15.2,30.6-22.6,46c-6.1,12.7-12.1,25.4-17.7,38.3 c-5.3,12.1-10.1,24.4-15,36.6c-3.8,9.4-7.6,18.9-11.3,28.4c-2.7,7-5.4,14-7.8,21.1c-5.4,16.2-10.5,32.5-15.8,48.8 c-3.6,11.2-7.3,22.3-10.7,33.5c-2.5,8.3-4.7,16.8-6.9,25.2c-3.2,12.5-6.2,25-9.1,37.6c-3.6,15.8-7.2,31.7-10.5,47.5 c-2.4,11.5-4.4,23-6.5,34.5c-0.7,3.8,1.4,5.6,4.8,6.2c6.5,1.2,13,2.4,19.4,3.5c11.3,2,13.7,4.6,11.7,15.6 c-6.4,36.8-8.3,74.1-11.8,111.3c-1.4,15-1.2,30.1-1.1,45.2c0.3,36.7,0.5,73.5,1.9,110.2c0.8,22.5,2.8,45.1,6,67.5 c2.4,16.7,4.7,33.3,7,50c2.4,17.2,6.9,34.1,10.3,51.2c3.1,15.3,5.5,30.7,9.1,45.9c2.8,12.2,6.9,24.1,10.4,36.2 c0.7,2.6,1.3,5.3,2,7.9c1.4,4.9,2.8,9.7,4.2,14.6c0.3,0.9,0.8,1.6,1.1,2.5c3.1,11.2,5.8,22.6,9.2,33.7c2.8,9.1,6.5,17.9,9.8,26.8 c0.5,1.4,1.2,2.8,1.7,4.2c5.2,14.9,10.3,29.9,15.6,44.8c1.2,3.4,3.5,6.3,4.8,9.6c2.5,6.1,1.8,8.5-3.6,12.2 c-1.9,1.3-4.2,2.4-6.3,3.3c-4.1,1.7-8.2,3.4-12.4,4.9c-2.2,0.8-4.5,1.6-6.8,2c-4,0.7-6.7-0.4-8.3-4.8c-7.3-20-15-39.8-22.3-59.8 c-6-16.7-11.7-33.4-17.1-50.3c-3.5-10.8-6.2-21.9-9.2-32.9c-2.7-9.9-5.2-19.7-7.7-29.6c-3.4-13.4-6.8-26.8-10.1-40.2 c-0.9-3.8-1.3-7.7-2.1-11.5c-0.9-4.3-2-8.5-3-12.9c-12.4-0.2-22.9,3.6-33.7,5.9c-3.7,0.8-5.2,3.7-4.5,7.6c0.7,3.9,1,7.8,1.9,11.6 c3.3,13.7,6.8,27.4,10.2,41.1c3.2,12.8,6.3,25.6,9.7,38.4c2.6,9.6,5.4,19.1,8.4,28.5c6.2,19.4,12.3,38.9,19.1,58.2 c5.3,15,12.3,29.4,17.1,44.5c2.7,8.4,9.1,15.7,8,25.4c-0.2,1.3,0.9,2.8,1.5,4.2c4,9,8,17.9,12.1,26.9c2.6,5.7,5.1,11.4,7.8,17.1 c6.4,13.2,12.7,26.4,19.5,39.4c7.6,14.5,15.6,28.9,23.6,43.2c7.7,13.9,15.4,27.7,23.5,41.4c7,11.8,14.5,23.5,22,35 c21.6,32.9,44.4,64.8,68.6,95.8c28.3,36.3,58.1,71.2,90.2,104c24.1,24.6,49.3,48.1,74.2,71.8c7.8,7.4,16.2,13.9,25.5,19.6 c10.7,6.5,19.7,15.7,29.7,23.4c21.3,16.5,42.8,32.9,64.8,49.7c2.8-2.5,5.4-4,7-6.3c7.9-11.3,15.3-23,23.2-34.3 c2.4-3.4,5.7-6,8.5-9.1c1.8-1.9,3.6-3.9,5.1-6.1c3.6-5.4,5.5-6,10.9-2.5c7.1,4.5,13.9,9.4,20.9,14c13.3,8.5,26.6,17.1,40.2,25.3 c14,8.5,28.3,16.6,42.5,24.6c6,3.4,12.3,6.2,18.3,9.5c4.1,2.3,8,4.9,11.5,7.1c-7.6,22.7-17.4,43.1-28.5,62.9 c-3.3,5.9-2.8,8.3,3.2,11.8c5.6,3.4,11.6,6.1,17.5,9.1c4.8,2.4,9.7,4.7,14.5,7.2c7.3,3.7,11.9,2.2,15.2-5.2 c5.6-12.9,10.6-26.1,16.8-38.7c3.3-6.9,8.4-12.9,12.9-19.1c2.1-2.8,4.8-2.6,8-1.1c10.8,4.9,21.9,9.3,32.7,14.2 c3.1,1.4,5.6,4.1,8.2,6.1c-2.9,10.4-5.2,20-8.4,29.3c-3.3,9.6-7.5,19-11.3,28.4c-0.2,0.6-0.6,1.1-0.8,1.6 c-5.4,12.6-4.1,15.1,8.8,19.7c9.3,3.3,18.4,7.1,27.5,10.9c7.5,3.2,10.9,1.7,13.5-6.3c4.9-14.8,9.8-29.6,14.8-44.4 c0.5-1.4,1.5-2.5,2.2-3.8c2-3.6,4.3-7.1,5.8-10.9c2.2-5.5,2.9-6.2,8.4-4.5c8.8,2.7,17.5,5.9,26.3,8.7c13.1,4.1,26.2,7.9,39.3,11.8 c2.6,0.8,5.2,1.5,7.8,2.2c5.4,1.5,10.9,3,16.3,4.5c4,1.1,8.2,1.9,12,3.6c3.5,1.6,5.1,4.4,4.3,8.8c-0.8,4.3-0.5,8.9-0.7,13.3 c-0.1,2.1-0.1,4.2-0.6,6.2c-3.4,13.4-7,26.8-10.4,40.1c-0.4,1.5-0.7,2.9-1,4.4c-1.2,7.1-0.9,7.9,5.9,9.3 c22.5,4.8,45.1,9.5,67.7,14.3c3.8,0.8,7.7,1.7,11.2,3.2c4.9,2.1,6,4.9,5,10.2c-4.1,20.6-8.3,41.2-12.5,61.8c-0.5,2.4-1.1,4.7-1.9,7 c-2,5.4-4.8,7-10.5,5.7c-15.5-3.5-30.9-7.2-46.4-10.7c-14.3-3.2-28.7-5.9-43-9.4c-12.2-2.9-24.3-6.5-36.4-9.9 c-11.2-3.2-22.5-6.4-33.6-9.8c-11.4-3.5-22.8-7.3-34.1-11.1c-7.9-2.7-15.9-5.4-23.7-8.3c-22.6-8.6-45.4-16.8-67.8-26 c-22.9-9.4-45.7-19.2-68.1-29.8c-20.5-9.7-40.6-20.5-60.6-31.2c-17.1-9.2-34-18.8-50.9-28.5c-8.8-5.1-17.4-10.7-26.1-16 c-6.4-3.9-8.5-3.4-12.3,2.9c-10.7,17.4-21.3,34.8-32,52.2c-3.8,6.2-7.4,7.3-13.2,3.4c-17.9-12-35.7-24.1-53.4-36.5 c-17.4-12.1-34.8-24.4-52-37c-8.2-6-16.1-12.5-23.8-19.1c-6.2-5.3-5.8-7.7-0.1-13.8c4.3-4.6,7.8-9.9,11.7-14.8 c7.9-9.9,15.9-19.6,23.7-29.6c2.5-3.2,4.4-6.9,6.9-10.8c-3.6-3-6.6-5.4-9.6-7.8c-5.6-4.5-12-8.1-15-15.2c-0.4-1-1.6-1.8-2.5-2.6 c-16-14.3-32.3-28.4-48-43.1c-14.8-13.9-29.3-28.1-43.2-42.9c-23.4-24.9-46.8-49.9-69-75.8c-28.3-33-55.1-67.3-79.3-103.5 c-12.2-18.2-24.7-36.2-36.5-54.6c-8.6-13.3-16.3-27.2-24.3-40.9c-8.1-14-16.5-27.8-24.1-42.1c-8.1-15-15.5-30.4-23.1-45.6 c-5.9-11.8-11.8-23.5-17.4-35.4c-3.4-7.3-6.2-14.9-9.5-22.2c-3.9-8.7-8.2-17.3-12.1-26c-5.3-11.7-10.5-23.4-15.4-35.3 c-3-7.2-5.3-14.7-7.9-22c-5.9-16.7-11.9-33.3-17.6-50.1c-3.2-9.4-5.8-18.9-8.6-28.4c-3.3-11.5-6.7-23.1-9.7-34.7 c-3.8-14.5-7.5-29.1-10.9-43.7c-4.5-19-8.6-38.1-13-57.2c-1.2-5.4-3-5.9-8.5-4.8c-17.6,3.7-35.2,7.2-52.8,10.8 c-7.3,1.5-14.7,3.1-21.9,4.9c-8.2,2-11.3,0.3-13.6-8c-0.6-2-1.3-4-1.6-6.1c-3-19.9-6-39.8-9-59.7c-0.4-2.4-0.1-4.9-0.7-7.2 c-5-17.6-3.9-35.9-7-53.6c-7-40.6-5.2-81.7-8.1-122.5c-1.6-23-0.6-46.3-0.1-69.4c0.7-29.2,2-58.3,3.3-87.5 c0.5-10.2,1.8-20.4,2.9-30.5c0.5-4.9,5.3-7.9,12.4-7.5c9.3,0.5,18.6,1.4,27.8,2.4c16.4,1.7,32.8,3.5,49.2,5.2 c2.1,0.2,4.2,0.1,6.3,0c3.4-0.2,5.6-1.9,6.1-5.4c0.2-1.5,0.6-3,0.8-4.5c3.3-23.8,6.4-47.7,9.9-71.5c0.7-4.9-1.4-6.8-5.3-7.7 c-8.8-1.9-17.6-3.8-26.4-5.3c-18.3-3.1-36.7-5.9-55-9.1c-6.6-1.2-10.4-7.1-9.3-14c1.4-8.3,3.3-16.5,4.9-24.7 c0.9-4.7,1.4-9.5,2.4-14.2c1.8-7.9,3.6-15.8,5.9-23.6c1.3-4.4,4-6.8,9.5-5.5c17.5,4.1,35.1,7.5,52.7,11.3c10.5,2.3,21,4.9,31.5,7.4 c3.6,0.9,5.8-0.2,6.9-3.7c0.5-1.7,1.1-3.4,1.5-5.2c5.1-18.8,10.1-37.7,15.3-56.5c2-7.3,1.1-9-6-11.1c-23-6.7-45.9-13.5-68.9-20 c-5.4-1.5-11-2-15.6-6.1c-4.3-3.7-4.7-4.8-2.6-9.9c1.5-3.6,2.6-7.3,3.8-11c3.6-11.1,7-22.2,10.6-33.2c3.1-9.7,6.2-19.4,9.6-28.9 c2-5.6,4.5-11,6.8-16.6c8.2,0,15.2,2.5,22.1,5.1c10.6,4,21.4,7.7,32,11.7c8.4,3.1,16.8,6.4,25.1,9.6c2.2,0.9,4.4,2,6.7,2.7 c10.2,3.3,10.8,2.6,14.8-7.5c7.7-19.2,15.9-38.2,24.1-57.2c7.2-16.5,14.4-32.9,22.2-49.1c7.8-16.2,16-32.2,24.4-48.1 c7.1-13.5,14.3-27.1,22.1-40.2c12.3-20.9,24.9-41.8,37.9-62.3c9.5-15,19.8-29.4,29.7-44c0.7-1,1.3-2,1.9-3.1 c4.8-8.4,4.7-8.2-3.3-13.8c-19.6-13.8-39.2-27.7-58.6-41.8c-5.9-4.3-11.3-9.3-17.6-14.5c6.9-9.7,13.2-19.1,20-28.1 c11.9-15.8,23.8-31.7,36.3-47.1c23.8-29.3,48.2-58.2,74.4-85.5c9.1-9.5,18.1-19.2,27.3-28.7c4.9-5.1,6.2-5.4,12.5-2 c3.1,1.7,6,4,8.5,6.5c17.5,17.8,34.9,35.6,52.4,53.5c1.7,1.7,3.4,3.4,5.3,4.9c3.3,2.6,6.4,2.6,9.6-0.5c6.7-6.5,13.5-12.8,20.3-19.2 c3.2-3,3.1-6.3,0.7-9.7c-1.2-1.7-2.7-3.2-4.2-4.7c-14.2-15.5-28.6-30.9-42.7-46.5c-6.4-7.1-12.4-14.5-19.2-22.5 C654.7,795.5,664.2,790.5,671.5,781.6z"/><path class="st1" d="M1432.9 1466.3c203.7 394.8 407.5 789.6 611.2 1184.4l478.3-379.6c180.9 38 361.9 75.9 542.8 113.9 235-97.2 470.1-194.3 705.1-291.5-126-382.5-252-765-378.1-1147.6-182.4 269.6-364.8 539.3-547.2 808.9-310-243-620-485.9-930.1-728.9L1432.9 1466.3zM2377.1 3893.1c-383.9-746.8-767.9-1493.7-1151.8-2240.5 33.4-31.5 66.8-63 100.2-94.5 384 751.5 768.1 1503 1152.1 2254.5C2444.1 3839.4 2410.6 3866.2 2377.1 3893.1zM1111.9 1438.7c-22-38.1-43.9-76.2-65.9-114.3 34.3-30.9 68.6-61.9 102.9-92.8 20.6 38.7 41.1 77.5 61.7 116.2C1177.7 1378 1144.8 1408.4 1111.9 1438.7z"/></svg>